<svg xmlns="http://www.w3.org/2000/svg" xmlns:xlink="http://www.w3.org/1999/xlink" version="1.1" x="0px" y="0px" viewBox="0 0 100 125" enable-background="new 0 0 100 100" xml:space="preserve"><path d="M89.329,3.25H10.671c-4.092,0-7.421,3.329-7.421,7.421v78.658c0,4.092,3.329,7.421,7.421,7.421h78.658  c4.092,0,7.421-3.329,7.421-7.421V10.671C96.75,6.579,93.421,3.25,89.329,3.25z M10.671,5.25h78.658  c2.989,0,5.421,2.432,5.421,5.421v23.48H76.124C70.757,25.336,61.055,19.437,50,19.437c-11.054,0-20.756,5.899-26.125,14.715H5.25  v-23.48C5.25,7.682,7.682,5.25,10.671,5.25z M50,21.437c15.75,0,28.563,12.813,28.563,28.563S65.75,78.563,50,78.563  S21.437,65.75,21.437,50S34.25,21.437,50,21.437z M89.329,94.75H10.671c-2.989,0-5.421-2.432-5.421-5.421V36.151h17.518  c-2.125,4.161-3.332,8.865-3.332,13.849c0,16.853,13.711,30.563,30.563,30.563S80.563,66.853,80.563,50  c0-4.983-1.207-9.688-3.331-13.849H94.75v53.178C94.75,92.318,92.318,94.75,89.329,94.75z"/><path d="M50,65.849c8.739,0,15.849-7.109,15.849-15.849c0-8.739-7.109-15.849-15.849-15.849c-8.739,0-15.849,7.11-15.849,15.849  C34.151,58.739,41.261,65.849,50,65.849z M50,36.151c7.636,0,13.849,6.212,13.849,13.849c0,7.636-6.213,13.849-13.849,13.849  c-7.636,0-13.849-6.213-13.849-13.849C36.151,42.364,42.364,36.151,50,36.151z"/><text x="0" y="115" fill="#000000" font-size="5px" font-weight="bold" font-family="'Helvetica Neue', Helvetica, Arial-Unicode, Arial, Sans-serif">Created by Srinivas Agra</text><text x="0" y="120" fill="#000000" font-size="5px" font-weight="bold" font-family="'Helvetica Neue', Helvetica, Arial-Unicode, Arial, Sans-serif">from the Noun Project</text></svg>