<svg xmlns="http://www.w3.org/2000/svg" xmlns:xlink="http://www.w3.org/1999/xlink" version="1.1" x="0px" y="0px" viewBox="7.5 7.5 50 62.5" enable-background="new 7.5 7.5 50 50" xml:space="preserve"><path d="M50.063,8.084H14.938c-3.779,0-6.854,3.075-6.854,6.854v35.124c0,3.779,3.075,6.854,6.854,6.854h35.125  c3.779,0,6.854-3.075,6.854-6.854V14.938C56.916,11.159,53.842,8.084,50.063,8.084z M14.438,9.109v3.931c0,0.276,0.224,0.5,0.5,0.5  s0.5-0.224,0.5-0.5V9.084h2.177v3.956c0,0.276,0.224,0.5,0.5,0.5s0.5-0.224,0.5-0.5V9.084h2.177v3.956c0,0.276,0.224,0.5,0.5,0.5  s0.5-0.224,0.5-0.5V9.084h28.271c3.228,0,5.854,2.626,5.854,5.854v8.237h-9.852c-2.973-4.313-7.942-7.148-13.565-7.148  c-5.623,0-10.592,2.836-13.565,7.148H9.083v-8.237C9.083,11.879,11.443,9.364,14.438,9.109z M32.5,17.026  c8.532,0,15.473,6.941,15.473,15.474S41.031,47.974,32.5,47.974S17.026,41.032,17.026,32.5S23.968,17.026,32.5,17.026z   M50.063,55.916H14.938c-3.228,0-5.854-2.626-5.854-5.854V24.175h9.226c-1.441,2.446-2.283,5.286-2.283,8.325  c0,9.084,7.39,16.474,16.473,16.474s16.473-7.39,16.473-16.474c0-3.039-0.842-5.879-2.282-8.325h9.226v25.887  C55.916,53.29,53.29,55.916,50.063,55.916z"/><path d="M32.5,43.766c6.213,0,11.268-5.054,11.268-11.265c0-6.213-5.055-11.268-11.268-11.268c-6.213,0-11.267,5.055-11.267,11.268  C21.232,38.712,26.287,43.766,32.5,43.766z M32.5,22.233c5.662,0,10.268,4.606,10.268,10.268c0,5.66-4.606,10.265-10.268,10.265  c-5.661,0-10.267-4.604-10.267-10.265C22.232,26.839,26.838,22.233,32.5,22.233z"/><path d="M32.5,39.175c3.681,0,6.676-2.994,6.676-6.675c0-3.681-2.995-6.676-6.676-6.676c-3.681,0-6.675,2.995-6.675,6.676  C25.824,36.181,28.819,39.175,32.5,39.175z M32.5,26.824c3.13,0,5.676,2.546,5.676,5.676c0,3.129-2.546,5.675-5.676,5.675  c-3.129,0-5.675-2.546-5.675-5.675C26.824,29.371,29.37,26.824,32.5,26.824z"/><path d="M48.65,19.497h1.721c1.443,0,2.617-1.174,2.617-2.618v-1.721c0-1.444-1.174-2.618-2.617-2.618H48.65  c-1.444,0-2.619,1.174-2.619,2.618v1.721C46.031,18.323,47.206,19.497,48.65,19.497z M47.031,15.158  c0-0.892,0.727-1.618,1.619-1.618h1.721c0.892,0,1.617,0.726,1.617,1.618v1.721c0,0.892-0.726,1.618-1.617,1.618H48.65  c-0.893,0-1.619-0.726-1.619-1.618V15.158z"/><text x="7.5" y="72.5" fill="#000000" font-size="5px" font-weight="bold" font-family="'Helvetica Neue', Helvetica, Arial-Unicode, Arial, Sans-serif">Created by Mohamed Mbarki</text><text x="7.5" y="77.5" fill="#000000" font-size="5px" font-weight="bold" font-family="'Helvetica Neue', Helvetica, Arial-Unicode, Arial, Sans-serif">from the Noun Project</text></svg>