<svg xmlns="http://www.w3.org/2000/svg" xmlns:xlink="http://www.w3.org/1999/xlink" version="1.1" x="0px" y="0px" viewBox="0 0 100 125" enable-background="new 0 0 100 100" xml:space="preserve"><path d="M89.329,2.25H10.671c-4.643,0-8.421,3.778-8.421,8.421v78.658c0,4.644,3.778,8.421,8.421,8.421h78.658  c4.644,0,8.421-3.777,8.421-8.421V10.671C97.75,6.028,93.973,2.25,89.329,2.25z M10.671,6.25h78.658  c2.438,0,4.421,1.983,4.421,4.421v22.48H76.67C71.069,24.317,61.212,18.437,50,18.437s-21.07,5.881-26.67,14.715H6.25v-22.48  C6.25,8.233,8.233,6.25,10.671,6.25z M50,22.437c15.198,0,27.563,12.365,27.563,27.563c0,15.198-12.365,27.563-27.563,27.563  c-15.199,0-27.563-12.365-27.563-27.563C22.437,34.801,34.801,22.437,50,22.437z M89.329,93.75H10.671  c-2.438,0-4.421-1.983-4.421-4.421V37.151h14.931c-1.758,3.928-2.744,8.274-2.744,12.849c0,17.404,14.159,31.563,31.563,31.563  S81.563,67.404,81.563,50c0-4.575-0.986-8.921-2.744-12.849H93.75v52.178C93.75,91.767,91.767,93.75,89.329,93.75z"/><path d="M50,66.849c9.29,0,16.849-7.559,16.849-16.849c0-9.291-7.559-16.849-16.849-16.849c-9.291,0-16.849,7.558-16.849,16.849  C33.151,59.29,40.709,66.849,50,66.849z M50,37.151c7.085,0,12.849,5.764,12.849,12.849S57.085,62.849,50,62.849  S37.151,57.085,37.151,50S42.915,37.151,50,37.151z"/><text x="0" y="115" fill="#000000" font-size="5px" font-weight="bold" font-family="'Helvetica Neue', Helvetica, Arial-Unicode, Arial, Sans-serif">Created by Srinivas Agra</text><text x="0" y="120" fill="#000000" font-size="5px" font-weight="bold" font-family="'Helvetica Neue', Helvetica, Arial-Unicode, Arial, Sans-serif">from the Noun Project</text></svg>