<svg xmlns="http://www.w3.org/2000/svg" xmlns:xlink="http://www.w3.org/1999/xlink" version="1.1" x="0px" y="0px" viewBox="0 0 100 125" enable-background="new 0 0 100 100" xml:space="preserve"><path d="M50,47.088c12.101,0,21.945-9.845,21.945-21.945c0-12.101-9.845-21.946-21.945-21.946c-12.101,0-21.946,9.845-21.946,21.946  C28.054,37.243,37.899,47.088,50,47.088z M50,7.196c9.896,0,17.945,8.051,17.945,17.946c0,9.895-8.05,17.945-17.945,17.945  s-17.946-8.05-17.946-17.945C32.054,15.247,40.104,7.196,50,7.196z"/><path d="M50,51.424c-26.054,0-47.25,19.46-47.25,43.38c0,1.104,0.896,2,2,2h90.5c1.104,0,2-0.896,2-2  C97.25,70.884,76.054,51.424,50,51.424z M50,55.424c23.111,0,42.047,16.592,43.194,37.38H6.806  C7.954,72.016,26.889,55.424,50,55.424z"/><text x="0" y="115" fill="#000000" font-size="5px" font-weight="bold" font-family="'Helvetica Neue', Helvetica, Arial-Unicode, Arial, Sans-serif">Created by Srinivas Agra</text><text x="0" y="120" fill="#000000" font-size="5px" font-weight="bold" font-family="'Helvetica Neue', Helvetica, Arial-Unicode, Arial, Sans-serif">from the Noun Project</text></svg>