<svg xmlns="http://www.w3.org/2000/svg" xmlns:xlink="http://www.w3.org/1999/xlink" version="1.1" x="0px" y="0px" viewBox="0 0 100 125" enable-background="new 0 0 100 100" xml:space="preserve"><path d="M50,3.154c-25.83,0-46.845,21.014-46.845,46.844C3.155,75.83,24.17,96.846,50,96.846S96.845,75.83,96.845,49.998  C96.845,24.168,75.83,3.154,50,3.154z M50,5.154c24.728,0,44.845,20.117,44.845,44.844c0,10.733-3.793,20.594-10.104,28.322  c-5.697-10.774-16.15-18.269-27.993-20.362c6.129-2.627,10.436-8.717,10.436-15.796c0-9.474-7.708-17.181-17.183-17.181  c-9.473,0-17.18,7.707-17.18,17.181c0,7.079,4.305,13.169,10.434,15.796c-11.845,2.094-22.297,9.589-27.992,20.364  C8.949,70.595,5.155,60.732,5.155,49.998C5.155,25.271,25.272,5.154,50,5.154z M50,57.342c-8.37,0-15.18-6.81-15.18-15.18  c0-8.371,6.81-15.181,15.18-15.181c8.372,0,15.183,6.81,15.183,15.181C65.183,50.532,58.372,57.342,50,57.342z M50,94.846  c-13.223,0-25.123-5.756-33.338-14.89C22.948,67.417,35.949,59.342,50,59.342c14.049,0,27.051,8.074,33.341,20.611  C75.126,89.089,63.224,94.846,50,94.846z"/><text x="0" y="115" fill="#000000" font-size="5px" font-weight="bold" font-family="'Helvetica Neue', Helvetica, Arial-Unicode, Arial, Sans-serif">Created by Srinivas Agra</text><text x="0" y="120" fill="#000000" font-size="5px" font-weight="bold" font-family="'Helvetica Neue', Helvetica, Arial-Unicode, Arial, Sans-serif">from the Noun Project</text></svg>