<svg xmlns="http://www.w3.org/2000/svg" data-name="Layer 1" viewBox="0 0 24 30" x="0px" y="0px"><title>Artboard 57</title><path d="M20,13.05V11A8,8,0,0,0,4,11v2.05a3.49,3.49,0,0,0,.5,7H6V11a6,6,0,0,1,12,0v9h1.5a3.49,3.49,0,0,0,.5-6.95Z"/><path d="M16,13H14a1,1,0,0,0-.89.55l-.28.56-2-2.71a1,1,0,0,0-1.69.15L8.38,13H8a1,1,0,0,0,0,2H9a1,1,0,0,0,.89-.55l.28-.56,2,2.71a1,1,0,0,0,.8.4h.09a1,1,0,0,0,.8-.55L14.62,15H16a1,1,0,0,0,0-2Z"/><text x="0" y="39" fill="#000000" font-size="5px" font-weight="bold" font-family="'Helvetica Neue', Helvetica, Arial-Unicode, Arial, Sans-serif">Created by Mas Dhimas</text><text x="0" y="44" fill="#000000" font-size="5px" font-weight="bold" font-family="'Helvetica Neue', Helvetica, Arial-Unicode, Arial, Sans-serif">from the Noun Project</text></svg>