<svg xmlns="http://www.w3.org/2000/svg" xmlns:xlink="http://www.w3.org/1999/xlink" version="1.1" x="0px" y="0px" viewBox="0 0 100 125" enable-background="new 0 0 100 100" xml:space="preserve"><path d="M95.237,14.521H4.762c-1.695,0-3.074,1.379-3.074,3.074v64.81c0,1.695,1.379,3.074,3.074,3.074h90.475  c1.695,0,3.074-1.379,3.074-3.074v-64.81C98.312,15.9,96.933,14.521,95.237,14.521z M4.762,16.521h90.475  c0.453,0,0.837,0.284,0.995,0.681L50,56.722L3.768,17.202C3.925,16.804,4.309,16.521,4.762,16.521z M50,59.353l12.307-10.52  l30.923,34.646H6.995l30.827-34.536L50,59.353z M3.688,82.404V19.765l32.612,27.877L4.383,83.401  C3.979,83.247,3.688,82.862,3.688,82.404z M95.768,83.318l-31.94-35.785l32.484-27.769v62.64  C96.312,82.8,96.087,83.132,95.768,83.318z"/><text x="0" y="115" fill="#000000" font-size="5px" font-weight="bold" font-family="'Helvetica Neue', Helvetica, Arial-Unicode, Arial, Sans-serif">Created by Srinivas Agra</text><text x="0" y="120" fill="#000000" font-size="5px" font-weight="bold" font-family="'Helvetica Neue', Helvetica, Arial-Unicode, Arial, Sans-serif">from the Noun Project</text></svg>