<svg xmlns="http://www.w3.org/2000/svg" xmlns:xlink="http://www.w3.org/1999/xlink" version="1.1" x="0px" y="0px" viewBox="0 0 100 125" enable-background="new 0 0 100 100" xml:space="preserve"><path d="M99.301,17.49c-0.004-0.072-0.01-0.144-0.021-0.215c-0.166-2.095-1.905-3.754-4.042-3.754H4.762  c-2.137,0-3.876,1.661-4.042,3.756c-0.011,0.07-0.018,0.14-0.021,0.21c-0.001,0.036-0.011,0.07-0.011,0.107v64.81  c0,2.246,1.828,4.074,4.074,4.074h90.475c2.246,0,4.074-1.828,4.074-4.074v-64.81C99.312,17.559,99.302,17.526,99.301,17.49z   M50,55.405L5.68,17.521h88.639L50,55.405z M95.237,82.479H4.762c-0.042,0-0.074-0.032-0.074-0.074V21.936l44.012,37.622  c0.02,0.017,0.042,0.027,0.061,0.043c0.041,0.032,0.083,0.061,0.125,0.089c0.072,0.049,0.146,0.093,0.222,0.131  c0.043,0.021,0.085,0.042,0.129,0.061c0.086,0.035,0.173,0.063,0.262,0.085c0.038,0.01,0.075,0.022,0.113,0.03  c0.128,0.025,0.257,0.041,0.387,0.041c0,0,0,0,0.001,0s0,0,0.001,0c0.129,0,0.259-0.016,0.387-0.041  c0.038-0.008,0.075-0.021,0.113-0.03c0.088-0.022,0.175-0.05,0.261-0.085c0.044-0.019,0.087-0.039,0.13-0.062  c0.076-0.038,0.149-0.081,0.221-0.13c0.043-0.028,0.085-0.057,0.125-0.089c0.021-0.016,0.042-0.026,0.062-0.043l44.012-37.622  v60.468C95.312,82.446,95.279,82.479,95.237,82.479z"/><text x="0" y="115" fill="#000000" font-size="5px" font-weight="bold" font-family="'Helvetica Neue', Helvetica, Arial-Unicode, Arial, Sans-serif">Created by Srinivas Agra</text><text x="0" y="120" fill="#000000" font-size="5px" font-weight="bold" font-family="'Helvetica Neue', Helvetica, Arial-Unicode, Arial, Sans-serif">from the Noun Project</text></svg>